<svg width="64" height="64" xmlns="http://www.w3.org/2000/svg">
<g>
  <path stroke="null" id="svg_6" fill="#FFFFFF" d="m42.509961,27.304164l-1.59,0l0,11.845l-3.445,0l0,-11.845l-1.587,0l0,-2.376l6.62,0l0,2.376l0.002,0zm-8.48,-6.148l0,21.77c0,2.823 -2.31,4.284 -5.155,4.284c-2.846,0 -5.174,-1.234 -5.174,-3.63l0.003,0c0,-0.94 0.77,-1.703 1.72,-1.703c0.948,0 1.717,0.763 1.717,1.703l0.002,0c0,1.74 0.14,2.92 1.732,2.92c1.712,0 1.712,-1.185 1.712,-3.574l0.002,-21.77c0,-2.82 2.307,-4.282 5.153,-4.282c2.845,0 5.173,1.23 5.173,3.628l-0.002,0c0,0.94 -0.77,1.703 -1.72,1.703c-0.947,0 -1.716,-0.762 -1.716,-1.703l-0.002,0c0,-1.74 -0.14,-2.92 -1.733,-2.92c-1.714,0 -1.713,1.184 -1.713,3.573l0.001,0.001zm-10.323,3.772l3.43,0l0.008,14.213l-3.44,0l0.004,-14.213l-0.002,0zm-10.464,-12.077l0,19.21c0.002,17.295 19.064,26.56 19.064,26.56s19.133,-9.265 19.133,-26.56l0,-19.21l-38.195,0l-0.002,0z"/>
</g>
</svg>